<svg version="1.1" xmlns="http://www.w3.org/2000/svg" xmlns:xlink="http://www.w3.org/1999/xlink" width="700" height="700" viewBox="930,301,700,700"><defs><linearGradient x1="1257.25422" y1="507.38507" x2="1374.52256" y2="507.38507" gradientUnits="userSpaceOnUse" id="color-1"><stop offset="0" stop-color="#cfcfcf"/><stop offset="1" stop-color="#000000"/></linearGradient><linearGradient x1="1261.01166" y1="735.42531" x2="1254.98835" y2="752.57473" gradientUnits="userSpaceOnUse" id="color-2"><stop offset="0" stop-color="#cfcfcf"/><stop offset="1" stop-color="#000000"/></linearGradient><linearGradient x1="1262.01166" y1="782.42532" x2="1255.98835" y2="799.57474" gradientUnits="userSpaceOnUse" id="color-3"><stop offset="0" stop-color="#cfcfcf"/><stop offset="1" stop-color="#000000"/></linearGradient><linearGradient x1="1258.02926" y1="805.42531" x2="1252.37625" y2="822.57473" gradientUnits="userSpaceOnUse" id="color-4"><stop offset="0" stop-color="#cfcfcf"/><stop offset="1" stop-color="#000000"/></linearGradient><linearGradient x1="1261.54252" y1="758.42532" x2="1255.45749" y2="775.57474" gradientUnits="userSpaceOnUse" id="color-5"><stop offset="0" stop-color="#cfcfcf"/><stop offset="1" stop-color="#000000"/></linearGradient><linearGradient x1="1261.21441" y1="711.42533" x2="1255.19111" y2="728.57475" gradientUnits="userSpaceOnUse" id="color-6"><stop offset="0" stop-color="#cfcfcf"/><stop offset="1" stop-color="#000000"/></linearGradient><linearGradient x1="1267.70242" y1="891.59974" x2="1249.7031" y2="891.40033" gradientUnits="userSpaceOnUse" id="color-7"><stop offset="0" stop-color="#cfcfcf"/><stop offset="1" stop-color="#000000"/></linearGradient><linearGradient x1="1240.14763" y1="824.26744" x2="1230.26236" y2="843.73261" gradientUnits="userSpaceOnUse" id="color-8"><stop offset="0" stop-color="#cfcfcf"/><stop offset="1" stop-color="#000000"/></linearGradient><linearGradient x1="1278.50048" y1="691.22487" x2="1268.61521" y2="710.69004" gradientUnits="userSpaceOnUse" id="color-9"><stop offset="0" stop-color="#cfcfcf"/><stop offset="1" stop-color="#000000"/></linearGradient><linearGradient x1="1268.14234" y1="625.3917" x2="1250.14302" y2="625.13353" gradientUnits="userSpaceOnUse" id="color-10"><stop offset="0" stop-color="#cfcfcf"/><stop offset="1" stop-color="#000000"/></linearGradient><linearGradient x1="1257.89862" y1="369.5" x2="1257.89862" y2="390.5" gradientUnits="userSpaceOnUse" id="color-11"><stop offset="0" stop-color="#cfcfcf"/><stop offset="1" stop-color="#000000"/></linearGradient></defs><g id="document" fill="#ffffff" fill-rule="nonzero" stroke="#000000" stroke-width="0" stroke-linecap="butt" stroke-linejoin="miter" stroke-miterlimit="10" stroke-dasharray="" stroke-dashoffset="0" font-family="none" font-weight="none" font-size="none" text-anchor="none" style="mix-blend-mode: normal"><rect x="930" y="215" transform="scale(1,1.4)" width="700" height="500" id="Shape 1 1" vector-effect="non-scaling-stroke"/></g><g fill="none" fill-rule="nonzero" stroke="none" stroke-width="none" stroke-linecap="none" stroke-linejoin="none" stroke-miterlimit="10" stroke-dasharray="none" stroke-dashoffset="0" font-family="none" font-weight="none" font-size="none" text-anchor="none" style="mix-blend-mode: normal"><g><g id="stage"><g id="layer1 1"><path d="M1217.50224,891.50004v-511.50003h80.49776v511.50004z" id="Path 1" fill="url(#color-1)" stroke="#000000" stroke-width="5" stroke-linecap="round" stroke-linejoin="round" stroke-dasharray=""/><path d="M1218.55622,742.03006c-6.05791,-1.75336 -10.18227,-5.41417 -9.21202,-8.17665l2.50971,-7.14559c0.97026,-2.76248 6.6677,-3.58053 12.72561,-1.82717l72.86426,21.08935c6.05791,1.75336 10.18227,5.41417 9.21202,8.17665l-2.50971,7.14559c-0.97026,2.76248 -6.6677,3.58053 -12.72561,1.82717z" id="Path 1" fill="url(#color-2)" stroke="#000000" stroke-width="1" stroke-linecap="round" stroke-linejoin="round" stroke-dasharray=""/><path d="M1219.55622,789.03007c-6.05791,-1.75336 -10.18227,-5.41417 -9.21202,-8.17665l2.50971,-7.14559c0.97026,-2.76248 6.6677,-3.58053 12.72561,-1.82717l72.86426,21.08935c6.05791,1.75336 10.18227,5.41417 9.21202,8.17665l-2.50971,7.14559c-0.97026,2.76248 -6.6677,3.58053 -12.72561,1.82717z" id="Path 1" fill="url(#color-3)" stroke="#000000" stroke-width="1" stroke-linecap="round" stroke-linejoin="round" stroke-dasharray=""/><path d="M1218.18393,812.03006c-5.68548,-1.75336 -9.55628,-5.41417 -8.64567,-8.17665l2.35542,-7.14559c0.91061,-2.76248 6.25778,-3.58053 11.94326,-1.82717l68.38465,21.08935c5.68548,1.75336 9.55628,5.41417 8.64567,8.17665l-2.35542,7.14559c-0.91061,2.76248 -6.25778,3.58053 -11.94326,1.82717z" id="Path 1" fill="url(#color-4)" stroke="#000000" stroke-width="1" stroke-linecap="round" stroke-linejoin="round" stroke-dasharray=""/><path d="M1218.65206,765.03007c-6.11998,-1.75336 -10.2866,-5.41417 -9.30641,-8.17665l2.53543,-7.14559c0.9802,-2.76248 6.73602,-3.58053 12.85601,-1.82717l73.61086,21.08935c6.11998,1.75336 10.2866,5.41417 9.30641,8.17665l-2.53543,7.14559c-0.9802,2.76248 -6.73602,3.58053 -12.85601,1.82717z" id="Path 1" fill="url(#color-5)" stroke="#000000" stroke-width="1" stroke-linecap="round" stroke-linejoin="round" stroke-dasharray=""/><path d="M1218.75897,718.03008c-6.05791,-1.75336 -10.18227,-5.41417 -9.21202,-8.17665l2.50971,-7.14559c0.97026,-2.76248 6.66771,-3.58053 12.72562,-1.82717l72.86427,21.08935c6.05791,1.75336 10.18227,5.41417 9.21202,8.17665l-2.50971,7.14559c-0.97026,2.76248 -6.66771,3.58053 -12.72562,1.82717z" id="Path 1" fill="url(#color-6)" stroke="#000000" stroke-width="1" stroke-linecap="round" stroke-linejoin="round" stroke-dasharray=""/><path d="M1250.00436,847.08838c0.05009,-7.36815 2.44112,-13.31519 5.3405,-13.28306l7.49972,0.08309c2.89939,0.03212 5.20919,6.03124 5.1591,13.39939l-0.60252,88.62389c-0.05009,7.36815 -2.44112,13.31519 -5.3405,13.28306l-7.49972,-0.08309c-2.89939,-0.03212 -5.20919,-6.03124 -5.1591,-13.39939z" id="Path 1" fill="url(#color-7)" stroke="#000000" stroke-width="1" stroke-linecap="round" stroke-linejoin="round" stroke-dasharray=""/><path d="M1218.57613,835.31078c-3.60597,-1.06782 -6.54417,-4.21412 -6.56265,-7.02746l-0.04781,-7.27716c-0.01848,-2.81334 2.88975,-4.22837 6.49572,-3.16055l43.37246,12.84367c3.60597,1.06782 6.54417,4.21412 6.56265,7.02746l0.04781,7.27716c0.01848,2.81334 -2.88975,4.22837 -6.49572,3.16055z" id="Path 1" fill="url(#color-8)" stroke="#000000" stroke-width="1" stroke-linecap="round" stroke-linejoin="round" stroke-dasharray=""/><path d="M1256.92898,702.26821c-3.60597,-1.06782 -6.54417,-4.21412 -6.56265,-7.02746l-0.04781,-7.27716c-0.01848,-2.81334 2.88975,-4.22837 6.49572,-3.16055l43.37246,12.84367c3.60597,1.06782 6.54417,4.21412 6.56265,7.02746l0.04781,7.27716c0.01848,2.81334 -2.88975,4.22837 -6.49572,3.16055z" id="Path 1" fill="url(#color-9)" stroke="#000000" stroke-width="1" stroke-linecap="round" stroke-linejoin="round" stroke-dasharray=""/><path d="M1250.44428,567.7649c0.05009,-9.53921 2.44112,-17.23856 5.3405,-17.19696l7.49972,0.10758c2.89939,0.04158 5.20919,7.80837 5.1591,17.34758l-0.60252,114.73724c-0.05009,9.53921 -2.44112,17.23856 -5.3405,17.19696l-7.49972,-0.10758c-2.89939,-0.04158 -5.20919,-7.80837 -5.1591,-17.34758z" id="Path 1" fill="url(#color-10)" stroke="#000000" stroke-width="0" stroke-linecap="round" stroke-linejoin="round" stroke-dasharray="3,2"/><path d="M1256,550.56777c-0.55228,0 -1,-0.44772 -1,-1v-150.56777c0,-0.55228 0.44772,-1 1,-1h5.5c0.55228,0 1,0.44772 1,1v150.56777c0,0.55228 -0.44772,1 -1,1z" id="Path 1" fill="#ff9800" stroke="#000000" stroke-width="1" stroke-linecap="round" stroke-linejoin="round" stroke-dasharray=""/><path d="M1259,550v-158.02922" id="Path 1" fill="#f2f2f2" stroke="#000000" stroke-width="1" stroke-linecap="round" stroke-linejoin="round" stroke-dasharray=""/><text x="765.73287" y="303.92635" transform="scale(1.64542,1.14584)" id="PointText 1" fill="#ffa726" stroke="none" stroke-width="1" stroke-linecap="butt" stroke-linejoin="miter" stroke-dasharray="" font-family="font-AzeriSans-Bold" font-weight="normal" font-size="40" text-anchor="middle">UARO</text><text x="431.31429" y="332.22857" transform="scale(2.91667,2.91667)" id="PointText 1" fill="#000000" stroke="none" stroke-width="1" stroke-linecap="butt" stroke-linejoin="miter" stroke-dasharray="" font-family="font-BebasNeue" font-weight="normal" font-size="8" text-anchor="middle">до трансивера</text><path d="M1204,402" id="Path 1" fill="none" stroke="#000000" stroke-width="1" stroke-linecap="round" stroke-linejoin="round" stroke-dasharray=""/><path d="M1165,393h92" id="Path 1" fill="#fb8c00" stroke="#000000" stroke-width="1" stroke-linecap="round" stroke-linejoin="round" stroke-dasharray=""/><path d="M1165,550h92" id="Path 1" fill="#fb8c00" stroke="#000000" stroke-width="1" stroke-linecap="round" stroke-linejoin="round" stroke-dasharray=""/><path d="M1165,698h92" id="Path 1" fill="#fb8c00" stroke="#000000" stroke-width="1" stroke-linecap="round" stroke-linejoin="round" stroke-dasharray=""/><text x="1612.53333" y="1658.98251" transform="rotate(17.76275) scale(0.8913,0.25089)" id="PointText 1" fill="#000000" stroke="none" stroke-width="1" stroke-linecap="butt" stroke-linejoin="miter" stroke-dasharray="" font-family="font-BebasNeueLight" font-weight="normal" font-size="40" text-anchor="middle">RG</text><path d="M1215.79724,380c0,-5.79899 18.84943,-10.5 42.10138,-10.5c23.25195,0 42.10138,4.70101 42.10138,10.5c0,5.79899 -18.84943,10.5 -42.10138,10.5c-23.25195,0 -42.10138,-4.70101 -42.10138,-10.5z" id="Path 1" fill="url(#color-11)" stroke="#000000" stroke-width="1" stroke-linecap="round" stroke-linejoin="round" stroke-dasharray=""/><text x="2322.12083" y="1025.33391" transform="scale(0.54134,0.375)" id="PointText 1" fill="#f2f2f2" stroke="none" stroke-width="1" stroke-linecap="butt" stroke-linejoin="miter" stroke-dasharray="" font-family="font-BebasNeue" font-weight="normal" font-size="40" text-anchor="middle">ПВХ</text><path d="M1127.54285,648.26262c-10.79322,0 -19.54285,-2.74002 -19.54285,-6.12v-21.76c0,-3.37998 8.74963,-6.12 19.54285,-6.12h36.91428c10.79322,0 19.54285,2.74002 19.54285,6.12v21.76c0,3.37998 -8.74963,6.12 -19.54285,6.12z" id="Path 1" fill="#fefaf6" stroke="#000000" stroke-width="1" stroke-linecap="round" stroke-linejoin="round" stroke-dasharray=""/><path d="M1127.54285,482.26262c-10.79322,0 -19.54285,-2.74002 -19.54285,-6.12v-21.76c0,-3.37998 8.74963,-6.12 19.54285,-6.12h36.91428c10.79322,0 19.54285,2.74002 19.54285,6.12v21.76c0,3.37998 -8.74963,6.12 -19.54285,6.12z" id="Path 1" fill="#fefaf6" stroke="#000000" stroke-width="1" stroke-linecap="round" stroke-linejoin="round" stroke-dasharray=""/><path d="M1127.54285,797.26262c-10.79322,0 -19.54285,-2.74002 -19.54285,-6.12v-21.76c0,-3.37998 8.74963,-6.12 19.54285,-6.12h36.91428c10.79322,0 19.54285,2.74002 19.54285,6.12v21.76c0,3.37998 -8.74963,6.12 -19.54285,6.12z" id="Path 1" fill="#fefaf6" stroke="#000000" stroke-width="1" stroke-linecap="round" stroke-linejoin="round" stroke-dasharray=""/><path d="M1165,393v51.08816" id="Path 1" fill="#f44336" stroke="#000000" stroke-width="1" stroke-linecap="round" stroke-linejoin="round" stroke-dasharray=""/><path d="M1166,550v-65.00769" id="Path 1" fill="#f44336" stroke="#000000" stroke-width="1" stroke-linecap="round" stroke-linejoin="round" stroke-dasharray=""/><path d="M1166,550v61.0082" id="Path 1" fill="#f44336" stroke="#000000" stroke-width="1" stroke-linecap="round" stroke-linejoin="round" stroke-dasharray=""/><path d="M1166,698v-46.01087" id="Path 1" fill="#f44336" stroke="#000000" stroke-width="1" stroke-linecap="round" stroke-linejoin="round" stroke-dasharray=""/><path d="M1183.99999,774l25.00001,-14" id="Path 1" fill="#f44336" stroke="#000000" stroke-width="1" stroke-linecap="round" stroke-linejoin="round" stroke-dasharray=""/><text x="2914.9762" y="870.26404" transform="scale(0.35163,0.54211)" id="PointText 1" fill="#d32f2f" stroke="none" stroke-width="1" stroke-linecap="butt" stroke-linejoin="miter" stroke-dasharray="" font-family="font-Asimov" font-weight="normal" font-size="40" text-anchor="middle">Верхній випромінювач</text><text x="2914.9762" y="1174.63049" transform="scale(0.35163,0.54211)" id="PointText 1" fill="#d32f2f" stroke="none" stroke-width="1" stroke-linecap="butt" stroke-linejoin="miter" stroke-dasharray="" font-family="font-Asimov" font-weight="normal" font-size="40" text-anchor="middle">Нижній випромінювач</text><text x="3048.63852" y="1453.17191" transform="scale(0.35163,0.54211)" id="PointText 1" fill="#d32f2f" stroke="none" stroke-width="1" stroke-linecap="butt" stroke-linejoin="miter" stroke-dasharray="" font-family="font-Asimov" font-weight="normal" font-size="40" text-anchor="middle">Дросель</text><text x="1789.83194" y="778.5184" transform="scale(0.67068,0.60505)" id="PointText 1" fill="#000000" stroke="none" stroke-width="1" stroke-linecap="butt" stroke-linejoin="miter" stroke-dasharray="" font-family="font-Beams" font-weight="normal" font-size="32" text-anchor="middle">см</text><text x="1789.3691" y="1056.17966" transform="scale(0.67068,0.60505)" id="PointText 1" fill="#000000" stroke="none" stroke-width="1" stroke-linecap="butt" stroke-linejoin="miter" stroke-dasharray="" font-family="font-Beams" font-weight="normal" font-size="32" text-anchor="middle">см</text><text x="1786.38706" y="1302.43914" transform="scale(0.67068,0.60505)" id="PointText 1" fill="#000000" stroke="none" stroke-width="1" stroke-linecap="butt" stroke-linejoin="miter" stroke-dasharray="" font-family="font-Beams" font-weight="normal" font-size="32" text-anchor="middle">см</text></g></g></g></g></svg>