<?xml version="1.0" encoding="utf-8"?>
<!-- Generator: Adobe Illustrator 27.5.0, SVG Export Plug-In . SVG Version: 6.00 Build 0)  -->
<svg version="1.1" id="Capa_1" xmlns="http://www.w3.org/2000/svg" xmlns:xlink="http://www.w3.org/1999/xlink" x="0px" y="0px"
	 viewBox="0 0 2122 2122" style="enable-background:new 0 0 2122 2122;" xml:space="preserve">
<g>
	<path style="fill:#F59D16;" d="M1823.048,368.2l-28.531-29.827l-25.752,9.183l-0.886-22.478L1652,256.272l-28.337,12.345
		l-1.101-83.604l-567.104,331.096L501.814,185.013L500.71,268.9l-28.334-12.629l-115.88,68.807l-0.706,39.053l-27.934-10.004
		l-36.002,26.357v1245.243l660.721,267.8c0,0.005,0.002,0.01,0.002,0.016c0,1.76,0.197,3.443,0.492,5.087
		c0.05,0.277,0.086,0.559,0.144,0.833c0.328,1.556,0.794,3.056,1.373,4.506c0.114,0.287,0.241,0.568,0.365,0.851
		c0.637,1.451,1.37,2.861,2.248,4.206c0.095,0.147,0.21,0.284,0.308,0.43c0.872,1.286,1.854,2.521,2.934,3.709
		c0.155,0.171,0.295,0.348,0.453,0.517c1.135,1.203,2.392,2.345,3.728,3.447c0.284,0.234,0.57,0.467,0.862,0.697
		c1.354,1.063,2.787,2.084,4.319,3.051c0.298,0.189,0.614,0.367,0.919,0.552c1.495,0.906,3.053,1.776,4.694,2.595
		c0.198,0.099,0.384,0.207,0.585,0.305c1.722,0.841,3.543,1.62,5.408,2.369c0.488,0.196,0.97,0.395,1.468,0.585
		c1.801,0.687,3.659,1.334,5.572,1.939c0.607,0.192,1.223,0.374,1.84,0.558c1.824,0.544,3.68,1.062,5.589,1.536
		c0.688,0.171,1.388,0.327,2.086,0.488c1.618,0.375,3.262,0.724,4.931,1.051c0.802,0.157,1.596,0.321,2.41,0.467
		c1.93,0.346,3.894,0.655,5.88,0.939c1.019,0.147,2.042,0.283,3.075,0.414c1.74,0.219,3.493,0.417,5.264,0.591
		c1.321,0.13,2.65,0.238,3.986,0.343c1.201,0.094,2.408,0.177,3.619,0.25c1.921,0.117,3.847,0.206,5.788,0.273
		c1.117,0.038,2.233,0.075,3.355,0.097c1.407,0.027,2.812,0.047,4.225,0.048c0.96,0.001,1.923-0.017,2.885-0.028
		c2.307-0.025,4.609-0.079,6.916-0.172c0.746-0.03,1.492-0.068,2.238-0.105c2.559-0.127,5.106-0.295,7.648-0.504
		c0.667-0.055,1.332-0.109,1.995-0.169c3.142-0.285,6.256-0.627,9.339-1.034c0.057-0.008,0.116-0.014,0.173-0.021v-0.001
		c38.124-5.069,70.669-19.386,70.669-40.715l687.108-267.8L1823.048,368.2z"/>
	<g>
		<path style="fill:#F8AD11;" d="M1142.358,816.637c0-16.614,0-32.415,0-47.346c1.03-1.662,0-21.559,0-26.937
			c0-64.446,0-107.787,0-118.829c0,39.361-53.284,57.52-103.386,55.029c-1.734-0.086-3.455-0.241-5.18-0.377
			c-1.121-0.088-2.25-0.148-3.367-0.257c-1.604-0.157-3.186-0.375-4.774-0.575c-1.22-0.154-2.448-0.286-3.656-0.466
			c-1.509-0.224-2.989-0.5-4.477-0.763c-1.263-0.224-2.532-0.434-3.779-0.685c-1.427-0.288-2.823-0.622-4.225-0.948
			c-1.262-0.293-2.528-0.58-3.769-0.904c-1.348-0.352-2.665-0.742-3.984-1.13c-1.246-0.366-2.492-0.733-3.709-1.131
			c-1.262-0.413-2.492-0.858-3.721-1.305c-1.209-0.441-2.411-0.888-3.585-1.362c-1.174-0.473-2.32-0.971-3.455-1.478
			c-1.157-0.516-2.297-1.046-3.412-1.597c-1.077-0.531-2.13-1.081-3.166-1.644c-1.091-0.595-2.155-1.21-3.196-1.84
			c-0.971-0.587-1.927-1.185-2.853-1.804c-1.012-0.675-1.981-1.378-2.936-2.091c-0.859-0.641-1.711-1.286-2.523-1.957
			c-0.918-0.76-1.779-1.554-2.632-2.352c-0.737-0.69-1.48-1.378-2.166-2.097c-0.812-0.851-1.548-1.741-2.285-2.631
			c-0.609-0.735-1.236-1.46-1.792-2.223c-0.692-0.949-1.288-1.946-1.894-2.938c-0.47-0.77-0.975-1.522-1.392-2.317
			c-0.563-1.074-1.007-2.202-1.467-3.323c-0.32-0.778-0.694-1.532-0.963-2.332c-0.43-1.279-0.714-2.62-1.008-3.955
			c-0.156-0.705-0.386-1.378-0.503-2.098c-0.332-2.042-0.51-4.146-0.517-6.315c0-0.046-0.01-0.088-0.01-0.134v121.914
			c0,0,0,0-0.001,0c0,3.55-0.931,22.385,0,23.854c0.001,0,0.001,0.001,0.001,0.001v50.429v0c0,0,0,0-0.001,0
			c0,3.55-0.931,22.385,0,23.854c0.001,0,0.001,0,0.001,0v903.157c0,0,0,0,0,0.001c0,0,0,0-0.001,0c0,3.55-0.931,22.385,0,23.853
			c0.001,0,0.001,0.001,0.001,0.001v39.47v0c0,0,0,0-0.001,0c0,3.55-0.931,22.385,0,23.854c0.001,0,0.001,0,0.001,0.001v59.617
			l-0.001,0c0,0,0,0,0,0.001c0,0.005,0.002,0.01,0.002,0.016c0,1.76,0.197,3.443,0.492,5.087c0.05,0.277,0.086,0.559,0.144,0.833
			c0.328,1.556,0.794,3.056,1.373,4.506c0.115,0.287,0.241,0.568,0.365,0.851c0.637,1.451,1.37,2.861,2.248,4.206
			c0.096,0.147,0.21,0.284,0.308,0.43c0.872,1.286,1.854,2.521,2.934,3.709c0.155,0.171,0.294,0.348,0.453,0.517
			c1.135,1.203,2.392,2.345,3.728,3.447c0.284,0.234,0.57,0.468,0.862,0.697c1.354,1.063,2.787,2.084,4.319,3.051
			c0.298,0.189,0.614,0.367,0.919,0.552c1.495,0.906,3.053,1.776,4.694,2.595c0.198,0.099,0.384,0.207,0.585,0.305
			c1.722,0.841,3.543,1.62,5.408,2.369c0.488,0.196,0.971,0.395,1.468,0.585c1.801,0.687,3.659,1.334,5.572,1.939
			c0.606,0.192,1.223,0.375,1.84,0.558c1.824,0.544,3.68,1.062,5.589,1.536c0.687,0.17,1.388,0.327,2.086,0.488
			c1.618,0.375,3.262,0.724,4.931,1.051c0.802,0.157,1.596,0.321,2.41,0.467c1.93,0.346,3.894,0.655,5.88,0.939
			c1.018,0.146,2.043,0.284,3.075,0.414c1.74,0.219,3.493,0.417,5.264,0.591c1.32,0.129,2.651,0.239,3.986,0.343
			c1.201,0.094,2.408,0.177,3.619,0.25c1.919,0.116,3.849,0.207,5.788,0.273c1.117,0.038,2.233,0.075,3.355,0.097
			c1.405,0.027,2.814,0.047,4.225,0.048c0.96,0.001,1.923-0.017,2.885-0.028c2.305-0.026,4.61-0.079,6.916-0.172
			c0.746-0.03,1.492-0.068,2.238-0.105c2.557-0.128,5.108-0.295,7.648-0.504c0.667-0.055,1.332-0.109,1.995-0.169
			c3.139-0.285,6.258-0.627,9.339-1.034c0.057-0.008,0.116-0.014,0.173-0.021v-0.001c38.124-5.069,70.669-19.386,70.669-40.715v0
			c0-5.733,0-26.819,0-59.618c1.03-1.662,0-21.559,0-26.938c0-11.24,0-23.385,0-36.387c1.03-1.662,0-21.559,0-26.937
			c0-223.186,0-641.795,0-900.074C1143.388,841.912,1142.358,822.015,1142.358,816.637z"/>
		<g>
			<path style="fill:#ffff;" d="M952.577,769.292c0.005,0.008,0.014,0.016,0.019,0.025c0.595,0.932,1.316,1.831,2.116,2.708
				c0.27,0.295,0.588,0.576,0.88,0.865c0.587,0.581,1.196,1.153,1.871,1.709c0.394,0.324,0.817,0.639,1.24,0.955
				c0.665,0.495,1.36,0.981,2.094,1.456c0.49,0.316,0.984,0.631,1.503,0.938c0.765,0.452,1.574,0.889,2.401,1.321
				c0.558,0.292,1.1,0.589,1.686,0.872c0.922,0.445,1.904,0.868,2.892,1.29c0.807,0.345,1.62,0.688,2.469,1.018
				c1.24,0.481,2.501,0.954,3.823,1.402c0.94,0.319,1.934,0.615,2.914,0.917c0.771,0.238,1.533,0.48,2.329,0.708
				c1.099,0.315,2.233,0.614,3.375,0.91c0.704,0.183,1.41,0.364,2.13,0.539c1.257,0.306,2.531,0.601,3.833,0.884
				c0.583,0.127,1.175,0.248,1.767,0.371c1.47,0.304,2.949,0.602,4.468,0.878c0.189,0.034,0.384,0.065,0.574,0.099
				c9.073,1.624,18.954,2.737,29.167,3.38c0.521,0.033,1.031,0.08,1.554,0.111v0c0.013,0,0.025,0.002,0.038,0.003
				c48.317,2.795,103.385-5.203,114.639-23.357c1.03-1.662,0-21.559,0-26.937c-25.938,12.41-70.331,18.819-111.841,17.789
				c-0.012,0-0.024-0.001-0.037-0.001c0-0.012,0.001-0.023,0.003-0.034c-22.457-0.56-44.056-3.287-61.441-8.43
				c-0.321-0.095-0.645-0.188-0.963-0.285c-2.599-0.79-5.097-1.636-7.488-2.537c-0.389-0.147-0.762-0.301-1.145-0.45
				c-2.397-0.935-4.713-1.913-6.867-2.967c0,0-0.001,0-0.001,0c0,0,0,0-0.001,0c0,3.55-0.931,22.385,0,23.854
				C952.577,769.291,952.577,769.292,952.577,769.292z"/>
			<path style="fill:#ffff;" d="M1024.622,834.229c-0.014,0-0.028-0.001-0.043-0.002c0.001-0.013,0.002-0.027,0.003-0.041
				c-17.537-0.744-34.375-2.832-48.852-6.403c-0.003-0.001-0.005-0.002-0.008-0.002c-2.82-0.696-5.542-1.452-8.17-2.262
				c-0.097-0.029-0.199-0.057-0.296-0.087c-2.447-0.76-4.781-1.581-7.039-2.442c-0.442-0.168-0.874-0.341-1.307-0.513
				c-2.203-0.874-4.339-1.781-6.333-2.757v0c0,0,0,0-0.001,0c0,3.55-0.931,22.385,0,23.854c0.001,0,0.001,0,0.001,0
				c0.001,0.001,0.003,0.003,0.003,0.005c0.588,0.926,1.308,1.817,2.1,2.688c0.253,0.278,0.544,0.545,0.817,0.818
				c0.593,0.591,1.22,1.173,1.904,1.739c0.355,0.294,0.721,0.584,1.101,0.872c0.715,0.541,1.479,1.067,2.276,1.583
				c0.395,0.256,0.772,0.517,1.186,0.767c1.121,0.674,2.304,1.328,3.559,1.958c0.34,0.171,0.701,0.335,1.05,0.502
				c1.146,0.548,2.331,1.081,3.576,1.594c0.65,0.268,1.333,0.522,2.008,0.781c0.903,0.345,1.818,0.686,2.766,1.014
				c0.794,0.275,1.6,0.546,2.423,0.809c0.883,0.282,1.79,0.554,2.706,0.823c0.902,0.265,1.797,0.534,2.729,0.786
				c0.844,0.228,1.724,0.438,2.591,0.655c2.055,0.514,4.169,0.998,6.346,1.451c0.643,0.134,1.273,0.275,1.926,0.403
				c1.319,0.26,2.669,0.5,4.025,0.738c0.661,0.116,1.318,0.232,1.987,0.342c1.424,0.235,2.861,0.46,4.32,0.672
				c0.543,0.079,1.093,0.153,1.641,0.229c5.398,0.747,10.995,1.341,16.729,1.774c0.051,0.004,0.099,0.01,0.15,0.013
				c0.015,0.002,0.031,0.003,0.047,0.005c49.481,3.701,108.156-4.216,119.814-23.021c1.03-1.662,0-21.559,0-26.937
				C1115.187,829.637,1067.766,836.054,1024.622,834.229z"/>
			<path style="fill:#ffff;" d="M1032.684,1824.816c-0.009,0-0.019-0.001-0.029-0.001c0-0.005-0.001-0.009-0.003-0.013
				c-11.616-0.216-23.036-1.01-33.796-2.413c-0.064-0.009-0.128-0.017-0.192-0.026c-7.03-0.922-13.77-2.111-20.102-3.565
				c-0.156-0.036-0.316-0.068-0.47-0.104c-2.937-0.682-5.762-1.435-8.505-2.236c-0.424-0.124-0.847-0.248-1.266-0.375
				c-2.63-0.795-5.166-1.643-7.586-2.552c-0.368-0.139-0.721-0.285-1.084-0.426c-2.472-0.96-4.859-1.965-7.075-3.049v0
				c0,0,0,0-0.001,0c0,3.55-0.931,22.385,0,23.854c0.001,0,0.001,0,0.001,0.001c0.023,0.037,0.061,0.071,0.085,0.108
				c0.608,0.942,1.322,1.856,2.142,2.742c0.298,0.322,0.672,0.623,0.997,0.938c0.605,0.586,1.202,1.172,1.897,1.732
				c0.44,0.355,0.949,0.688,1.424,1.033c0.677,0.49,1.344,0.982,2.087,1.451c0.559,0.353,1.176,0.686,1.773,1.027
				c0.755,0.43,1.505,0.863,2.317,1.275c0.665,0.337,1.373,0.658,2.074,0.982c0.832,0.385,1.666,0.769,2.548,1.136
				c0.762,0.317,1.557,0.621,2.355,0.926c0.901,0.344,1.808,0.683,2.752,1.01c0.852,0.294,1.727,0.579,2.612,0.86
				c0.961,0.305,1.937,0.604,2.937,0.893c0.94,0.271,1.893,0.536,2.865,0.793c1.007,0.266,2.03,0.524,3.069,0.775
				c1.026,0.248,2.058,0.491,3.114,0.725c1.043,0.23,2.105,0.449,3.175,0.665c1.106,0.223,2.212,0.445,3.344,0.652
				c1.065,0.195,2.15,0.376,3.236,0.557c1.186,0.198,2.367,0.397,3.578,0.578c1.067,0.16,2.156,0.304,3.241,0.451
				c1.274,0.173,2.542,0.35,3.838,0.506c1.023,0.123,2.066,0.228,3.101,0.34c1.388,0.15,2.77,0.306,4.178,0.437
				c0.924,0.086,1.865,0.152,2.798,0.229c1.542,0.128,3.077,0.263,4.637,0.368c0.476,0.033,0.959,0.051,1.437,0.081
				c4.401,0.276,8.854,0.475,13.338,0.571c45.114,0.967,92.488-7.155,102.832-23.841c1.03-1.662,0-21.559,0-26.938
				C1116.87,1819.166,1073.564,1825.573,1032.684,1824.816z"/>
			<path style="fill:#ffff;" d="M1029.594,1761.414c0-0.014,0-0.028-0.001-0.042c0,0-0.001,0-0.003,0
				c-22.234-0.613-43.587-3.352-60.782-8.469c-0.277-0.083-0.559-0.163-0.833-0.246c-2.59-0.788-5.075-1.636-7.459-2.536
				c-0.384-0.145-0.755-0.297-1.134-0.445c-2.374-0.929-4.67-1.898-6.805-2.943c0,0,0,0,0,0.001c0,0,0,0-0.001,0
				c0,3.55-0.931,22.385,0,23.853c0.001,0,0.001,0.001,0.001,0.001c0.006,0.01,0.016,0.019,0.022,0.029
				c0.599,0.939,1.324,1.845,2.133,2.729c0.274,0.299,0.603,0.583,0.9,0.876c0.591,0.582,1.198,1.158,1.878,1.715
				c0.404,0.331,0.846,0.651,1.281,0.974c0.664,0.492,1.349,0.976,2.081,1.447c0.507,0.326,1.03,0.646,1.568,0.963
				c0.753,0.442,1.541,0.873,2.354,1.295c0.59,0.307,1.177,0.615,1.798,0.912c0.852,0.407,1.751,0.797,2.657,1.185
				c0.655,0.28,1.289,0.568,1.972,0.839c0.999,0.395,2.056,0.766,3.11,1.14c1.285,0.456,2.61,0.894,3.973,1.318
				c1.015,0.315,2.016,0.637,3.072,0.934c1.067,0.301,2.186,0.578,3.292,0.861c0.803,0.205,1.594,0.415,2.416,0.61
				c1.197,0.285,2.427,0.551,3.664,0.816c0.767,0.164,1.531,0.328,2.312,0.484c1.324,0.266,2.667,0.517,4.029,0.76
				c0.696,0.124,1.398,0.244,2.104,0.362c1.475,0.248,2.96,0.487,4.473,0.709c0.54,0.079,1.088,0.151,1.632,0.227
				c7.936,1.109,16.316,1.883,24.901,2.312c0.006,0,0.011,0.001,0.016,0.001c0,0,0,0,0.001,0
				c47.7,2.382,101.083-5.657,112.143-23.498c1.03-1.662,0-21.559,0-26.937C1116.227,1756.15,1071.367,1762.563,1029.594,1761.414z"
				/>
		</g>
		<path style="fill:#E6E6E6;" d="M1767.88,325.078L1652,256.272l-28.337,12.345l-1.101-83.604l-567.104,331.096L501.814,185.013
			L500.71,268.9l-28.334-12.629l-115.88,68.807l-0.706,39.053l614.997,220.255c9.585,72.685,142.975,74.283,151.761-6.39
			l646.217-230.439L1767.88,325.078z"/>
		<path style="fill:#135A98;" d="M927.376,614.255l25.2,9.269h0.001c0,0.046,0.01,0.088,0.01,0.134
			c0.008,2.169,0.186,4.273,0.517,6.315c0.117,0.72,0.347,1.393,0.503,2.098c0.294,1.336,0.578,2.677,1.008,3.955
			c0.269,0.8,0.643,1.554,0.963,2.332c0.461,1.121,0.904,2.249,1.467,3.323c0.417,0.795,0.922,1.547,1.392,2.317
			c0.606,0.992,1.202,1.988,1.894,2.938c0.555,0.763,1.183,1.488,1.792,2.223c0.737,0.891,1.473,1.781,2.285,2.631
			c0.687,0.719,1.429,1.406,2.166,2.097c0.853,0.798,1.713,1.593,2.632,2.352c0.811,0.672,1.664,1.316,2.523,1.957
			c0.955,0.713,1.924,1.415,2.936,2.091c0.926,0.618,1.881,1.216,2.853,1.804c1.042,0.63,2.105,1.246,3.196,1.84
			c1.035,0.564,2.089,1.113,3.166,1.644c1.115,0.551,2.255,1.081,3.412,1.597c1.135,0.507,2.281,1.005,3.455,1.478
			c1.174,0.473,2.375,0.92,3.585,1.362c1.228,0.447,2.459,0.891,3.721,1.305c1.218,0.398,2.463,0.765,3.709,1.131
			c1.319,0.388,2.636,0.778,3.984,1.13c1.24,0.324,2.507,0.611,3.769,0.904c1.402,0.326,2.798,0.66,4.225,0.948
			c1.246,0.251,2.516,0.461,3.779,0.685c1.488,0.263,2.968,0.539,4.477,0.763c1.208,0.18,2.436,0.312,3.656,0.466
			c1.589,0.2,3.171,0.418,4.774,0.575c1.117,0.109,2.245,0.169,3.367,0.257c1.725,0.136,3.445,0.291,5.18,0.377
			c50.101,2.491,103.386-15.669,103.386-55.029c0,0,0,0,0-0.001l31.473-11.805L1823.048,368.2l-28.531-29.827l-25.752,9.183
			l-646.217,230.439c-8.786,80.673-142.176,79.076-151.761,6.39L355.791,364.131l-27.934-10.004l-36.002,26.357L927.376,614.255
			L927.376,614.255z"/>
		<path style="fill:#FBBA09;" d="M1184.279,607.8c-0.026,0.639-0.03,1.281-0.055,1.92l601.284-198.262l43.958,1214.27
			L1823.048,368.2l-649.217,243.519L1184.279,607.8z"/>
		<path style="fill:#FAB30E;" d="M927.336,615.62c0.012-0.455,0.029-0.91,0.041-1.365l-635.522-233.77v1245.243L314.22,423.617
			L927.336,615.62z"/>
		<path style="fill:#F28A1A;" d="M952.576,1810.056C952.577,1810.056,952.577,1810.057,952.576,1810.056L952.576,1810.056
			l0.001-39.47c0,0,0,0-0.001-0.001c-0.931-1.468,0-20.303,0-23.853c0.001,0,0.001,0,0.001,0c0,0,0-0.001,0-0.001V843.575
			c0,0,0,0-0.001,0c-0.931-1.469,0-20.303,0-23.854c0.001,0,0.001,0,0.001,0v0v-50.429c0,0,0-0.001-0.001-0.001
			c-0.931-1.469,0-20.303,0-23.854c0.001,0,0.001,0,0.001,0V623.524h-0.001l-25.2-9.269v0c-0.012,0.454-0.029,0.91-0.041,1.365
			c-10.616,400.836-66.233,814.18-293.07,1148.892l318.311,129.015l0.001,0v-59.617c0,0,0-0.001-0.001-0.001
			C951.645,1832.441,952.576,1813.607,952.576,1810.056z"/>
		<polygon style="fill:#ffff;" points="1024.582,1034.079 1016.052,1034.079 1005.932,1034.079 1005.932,1502.783
			1022.282,1502.783 1024.582,1502.783 1089.002,1502.783 1089.002,1034.079 		"/>
		<polygon style="fill:#ffff;" points="1261.53,981.848 1692.493,825.907 1692.493,553.72 1261.53,709.661 		"/>
		<path style="fill:#F1861A;" d="M1184.223,609.72c0.026-0.639,0.029-1.281,0.055-1.92l-10.448,3.919l-31.473,11.805
			c0,0,0,0,0,0.001c0,11.042,0,54.383,0,118.829c0,5.378,1.03,25.275,0,26.937c0,14.931,0,30.732,0,47.346
			c0,5.378,1.03,25.275,0,26.937c0,258.279,0,676.887,0,900.074c0,5.379,1.03,25.275,0,26.937c0,13.001,0,25.147,0,36.387
			c0,5.379,1.03,25.276,0,26.938c0,32.798,0,53.885,0,59.618l489.035-190.601C1318.094,1445.779,1167.979,1012.641,1184.223,609.72z
			"/>
		<polygon style="fill:#ffff;" points="1532.704,1612.517 1246.055,1716.24 1246.055,1741.669 1532.704,1637.948 		"/>
		<polygon style="fill:#ffff;" points="1458.421,1684.802 1246.055,1761.645 1246.055,1787.074 1458.421,1710.232 		"/>
		<polygon style="fill:#ffff;" points="1005.932,1502.783 1022.282,1502.783 1024.582,1502.783 1024.582,1034.079
			1016.052,1034.079 1005.932,1034.079 		"/>
		<path style="fill:#ffff;" d="M952.577,769.291c0.005,0.009,0.014,0.017,0.019,0.026c0.595,0.932,1.316,1.831,2.116,2.708
			c0.27,0.295,0.588,0.576,0.88,0.865c0.587,0.581,1.196,1.153,1.871,1.709c0.394,0.324,0.817,0.639,1.24,0.955
			c0.665,0.495,1.36,0.981,2.094,1.456c0.49,0.316,0.984,0.631,1.503,0.938c0.765,0.452,1.574,0.889,2.401,1.321
			c0.558,0.292,1.1,0.589,1.686,0.872c0.922,0.445,1.904,0.868,2.892,1.29c0.807,0.345,1.62,0.688,2.469,1.018
			c1.24,0.481,2.501,0.954,3.823,1.402c0.94,0.319,1.934,0.615,2.914,0.917c0.771,0.238,1.533,0.48,2.329,0.708
			c1.099,0.315,2.233,0.614,3.375,0.91c0.704,0.183,1.41,0.364,2.13,0.539c1.257,0.306,2.531,0.601,3.833,0.884
			c0.583,0.127,1.175,0.248,1.767,0.371c1.47,0.304,2.949,0.602,4.468,0.878c0.189,0.034,0.384,0.065,0.574,0.099
			c9.071,1.62,18.958,2.737,29.167,3.38c0.521,0.033,1.031,0.08,1.554,0.111v0c0.876-10.834,1.813-21.668,2.8-32.503
			c0-0.012,0.001-0.023,0.003-0.034c-22.457-0.56-44.056-3.287-61.441-8.43c-0.321-0.095-0.645-0.188-0.963-0.285
			c-2.599-0.79-5.097-1.636-7.488-2.537c-0.389-0.147-0.762-0.301-1.145-0.45c-2.397-0.935-4.713-1.913-6.867-2.967
			c0,0-0.001,0-0.001,0C952.577,748.988,951.645,767.822,952.577,769.291z"/>
		<path style="fill:#ffff;" d="M952.577,843.575c0.001,0.001,0.003,0.003,0.003,0.005c0.588,0.926,1.308,1.817,2.1,2.688
			c0.253,0.278,0.544,0.545,0.817,0.818c0.593,0.591,1.22,1.173,1.904,1.739c0.355,0.294,0.721,0.584,1.101,0.872
			c0.715,0.541,1.479,1.067,2.276,1.583c0.395,0.256,0.772,0.517,1.186,0.767c1.121,0.674,2.304,1.328,3.559,1.958
			c0.34,0.171,0.701,0.335,1.05,0.502c1.146,0.548,2.331,1.081,3.576,1.594c0.65,0.268,1.333,0.522,2.008,0.781
			c0.903,0.345,1.818,0.686,2.766,1.014c0.794,0.275,1.6,0.546,2.423,0.809c0.883,0.282,1.79,0.554,2.706,0.823
			c0.902,0.265,1.797,0.534,2.729,0.786c0.844,0.228,1.724,0.438,2.591,0.655c2.055,0.514,4.169,0.998,6.346,1.451
			c0.643,0.134,1.273,0.275,1.926,0.403c1.319,0.26,2.669,0.5,4.025,0.738c0.661,0.116,1.318,0.232,1.987,0.342
			c1.424,0.235,2.861,0.46,4.32,0.672c0.543,0.079,1.093,0.153,1.641,0.229c5.397,0.746,10.996,1.341,16.729,1.774
			c0.051,0.004,0.099,0.01,0.15,0.013l0,0c0.641-10.788,1.343-21.576,2.082-32.363c0.001-0.013,0.002-0.027,0.003-0.041
			c-17.537-0.744-34.375-2.832-48.852-6.403c-0.003-0.001-0.005-0.002-0.008-0.002c-2.82-0.696-5.542-1.452-8.17-2.262
			c-0.097-0.029-0.199-0.057-0.296-0.087c-2.447-0.76-4.781-1.581-7.039-2.442c-0.442-0.168-0.874-0.341-1.307-0.513
			c-2.203-0.874-4.339-1.781-6.333-2.757v0C952.577,823.272,951.645,842.106,952.577,843.575z"/>
		<path style="fill:#ffff;" d="M1032.656,1824.815c0-0.005-0.001-0.009-0.003-0.013c-11.616-0.216-23.036-1.01-33.796-2.413
			c-0.064-0.009-0.128-0.017-0.192-0.026c-7.03-0.922-13.77-2.111-20.102-3.565c-0.156-0.036-0.316-0.068-0.47-0.104
			c-2.937-0.682-5.762-1.435-8.505-2.236c-0.424-0.124-0.847-0.248-1.266-0.375c-2.63-0.795-5.166-1.643-7.586-2.552
			c-0.368-0.139-0.721-0.285-1.084-0.426c-2.472-0.96-4.859-1.965-7.075-3.049v0c0,3.55-0.932,22.384,0,23.853
			c0.024,0.037,0.06,0.072,0.085,0.109c0.608,0.942,1.322,1.856,2.142,2.742c0.298,0.322,0.672,0.623,0.997,0.938
			c0.605,0.586,1.202,1.172,1.897,1.732c0.44,0.355,0.949,0.688,1.424,1.033c0.677,0.49,1.344,0.982,2.087,1.451
			c0.559,0.353,1.176,0.686,1.773,1.027c0.755,0.43,1.505,0.863,2.317,1.275c0.665,0.337,1.373,0.658,2.074,0.982
			c0.832,0.385,1.666,0.769,2.548,1.136c0.762,0.317,1.557,0.621,2.355,0.926c0.901,0.344,1.808,0.683,2.752,1.01
			c0.852,0.294,1.727,0.579,2.612,0.86c0.961,0.305,1.937,0.604,2.937,0.893c0.94,0.271,1.893,0.536,2.865,0.793
			c1.007,0.266,2.03,0.524,3.069,0.775c1.026,0.248,2.058,0.491,3.114,0.725c1.043,0.23,2.105,0.449,3.175,0.665
			c1.106,0.223,2.212,0.445,3.344,0.652c1.065,0.195,2.15,0.376,3.236,0.557c1.186,0.198,2.367,0.397,3.578,0.578
			c1.067,0.16,2.156,0.304,3.241,0.451c1.274,0.173,2.542,0.35,3.838,0.506c1.023,0.123,2.066,0.228,3.101,0.34
			c1.388,0.15,2.77,0.306,4.178,0.437c0.924,0.086,1.865,0.152,2.798,0.229c1.542,0.128,3.077,0.263,4.637,0.368
			c0.476,0.033,0.959,0.051,1.437,0.081c4.392,0.276,8.837,0.474,13.312,0.57
			C1036.559,1846.861,1034.255,1835.863,1032.656,1824.815z"/>
		<path style="fill:#ffff;" d="M952.577,1770.585c0.006,0.01,0.016,0.019,0.022,0.03c0.599,0.939,1.324,1.845,2.133,2.729
			c0.274,0.299,0.603,0.583,0.9,0.876c0.591,0.582,1.198,1.158,1.878,1.715c0.404,0.331,0.846,0.651,1.281,0.974
			c0.664,0.492,1.349,0.976,2.081,1.447c0.507,0.326,1.03,0.646,1.568,0.963c0.753,0.442,1.541,0.873,2.354,1.295
			c0.59,0.307,1.177,0.615,1.798,0.912c0.852,0.407,1.751,0.797,2.657,1.185c0.655,0.28,1.289,0.568,1.972,0.839
			c0.999,0.395,2.056,0.766,3.11,1.14c1.285,0.456,2.61,0.894,3.973,1.318c1.015,0.315,2.016,0.637,3.072,0.934
			c1.067,0.301,2.186,0.578,3.292,0.861c0.803,0.205,1.594,0.415,2.416,0.61c1.197,0.285,2.427,0.551,3.664,0.816
			c0.767,0.164,1.531,0.328,2.312,0.484c1.324,0.266,2.667,0.517,4.029,0.76c0.696,0.124,1.398,0.244,2.104,0.362
			c1.475,0.248,2.96,0.487,4.473,0.709c0.54,0.079,1.088,0.151,1.632,0.227c7.935,1.107,16.319,1.883,24.901,2.312
			c0.006,0,0.011,0.001,0.016,0.001c-0.191-10.889-0.393-21.78-0.619-32.669c0-0.014,0-0.028-0.001-0.042c0,0-0.001,0-0.003,0
			c-22.234-0.613-43.587-3.352-60.782-8.469c-0.277-0.083-0.559-0.163-0.833-0.246c-2.59-0.788-5.075-1.636-7.459-2.536
			c-0.384-0.145-0.755-0.297-1.134-0.445c-2.374-0.929-4.67-1.898-6.805-2.943c0,0,0,0,0,0.001
			C952.577,1750.284,951.645,1769.117,952.577,1770.585z"/>
		<path style="fill:#F39318;" d="M1026.188,1857.18c-0.477-0.03-0.961-0.049-1.437-0.081c-1.561-0.105-3.096-0.239-4.637-0.368
			c-0.933-0.077-1.874-0.144-2.798-0.229c-1.409-0.131-2.79-0.286-4.178-0.437c-1.035-0.112-2.078-0.217-3.101-0.34
			c-1.296-0.156-2.564-0.333-3.838-0.506c-1.085-0.147-2.174-0.291-3.241-0.451c-1.21-0.182-2.391-0.38-3.578-0.578
			c-1.087-0.182-2.172-0.362-3.236-0.557c-1.133-0.207-2.239-0.429-3.344-0.652c-1.07-0.215-2.132-0.435-3.175-0.665
			c-1.056-0.234-2.088-0.477-3.114-0.725c-1.039-0.251-2.062-0.509-3.069-0.775c-0.972-0.257-1.926-0.522-2.865-0.793
			c-0.999-0.289-1.975-0.588-2.937-0.893c-0.886-0.281-1.76-0.565-2.612-0.86c-0.944-0.327-1.852-0.666-2.752-1.01
			c-0.798-0.304-1.593-0.608-2.355-0.926c-0.882-0.367-1.716-0.751-2.548-1.136c-0.701-0.324-1.409-0.645-2.074-0.982
			c-0.812-0.412-1.562-0.844-2.317-1.275c-0.596-0.341-1.213-0.674-1.773-1.027c-0.744-0.469-1.411-0.961-2.087-1.451
			c-0.475-0.345-0.984-0.678-1.424-1.033c-0.695-0.559-1.292-1.146-1.897-1.732c-0.325-0.315-0.698-0.616-0.997-0.938
			c-0.82-0.885-1.534-1.8-2.142-2.742c-0.024-0.037-0.062-0.071-0.085-0.108v59.617c0,0.005,0.001,0.01,0.001,0.016
			c0,1.76,0.197,3.443,0.492,5.087c0.05,0.277,0.086,0.559,0.144,0.833c0.328,1.556,0.794,3.056,1.373,4.506
			c0.115,0.287,0.241,0.568,0.365,0.851c0.637,1.451,1.37,2.861,2.248,4.206c0.096,0.147,0.21,0.284,0.308,0.43
			c0.872,1.286,1.854,2.521,2.934,3.709c0.155,0.171,0.294,0.348,0.453,0.517c1.135,1.203,2.392,2.345,3.728,3.447
			c0.284,0.234,0.57,0.468,0.862,0.697c1.354,1.063,2.787,2.084,4.319,3.051c0.298,0.189,0.614,0.367,0.919,0.552
			c1.495,0.906,3.053,1.776,4.694,2.595c0.198,0.099,0.384,0.207,0.585,0.305c1.722,0.841,3.543,1.62,5.408,2.369
			c0.488,0.196,0.971,0.395,1.468,0.585c1.801,0.687,3.659,1.334,5.572,1.939c0.606,0.192,1.223,0.375,1.84,0.558
			c1.824,0.544,3.68,1.062,5.589,1.536c0.687,0.17,1.388,0.327,2.086,0.488c1.618,0.375,3.262,0.724,4.931,1.051
			c0.802,0.157,1.596,0.321,2.41,0.467c1.93,0.346,3.894,0.655,5.88,0.939c1.018,0.146,2.043,0.284,3.075,0.414
			c1.74,0.219,3.493,0.417,5.264,0.591c1.32,0.129,2.651,0.239,3.986,0.343c1.201,0.094,2.408,0.177,3.619,0.25
			c1.919,0.116,3.849,0.207,5.788,0.273c1.117,0.038,2.233,0.075,3.355,0.097c1.405,0.027,2.814,0.047,4.225,0.048
			c0.96,0.001,1.923-0.017,2.885-0.028c2.305-0.026,4.61-0.079,6.916-0.172c0.746-0.03,1.492-0.068,2.238-0.105
			c2.557-0.128,5.108-0.295,7.648-0.504c0.667-0.055,1.332-0.109,1.995-0.169c3.139-0.285,6.258-0.627,9.339-1.034
			c0.057-0.008,0.116-0.014,0.173-0.021v-0.001c-14.054-24.183-25.005-50.005-32.164-76.493
			C1035.042,1857.655,1030.589,1857.456,1026.188,1857.18z"/>
		<path style="fill:#F39318;" d="M960.516,1750.12c2.383,0.9,4.869,1.748,7.459,2.536c0.274,0.084,0.556,0.164,0.833,0.246
			c17.195,5.117,38.548,7.856,60.782,8.469c-1.792-86.196-4.615-172.392-7.308-258.588h-16.349v-468.705h10.119
			c1.093-55.828,3.167-111.655,6.492-167.484c-0.016-0.001-0.032-0.003-0.047-0.005l0,0c-0.051-0.003-0.099-0.009-0.15-0.013
			c-5.734-0.433-11.331-1.027-16.729-1.774c-0.548-0.076-1.098-0.15-1.641-0.229c-1.459-0.213-2.897-0.437-4.32-0.672
			c-0.669-0.111-1.326-0.227-1.987-0.342c-1.356-0.237-2.706-0.478-4.025-0.738c-0.654-0.128-1.283-0.269-1.926-0.403
			c-2.177-0.453-4.291-0.937-6.346-1.451c-0.867-0.217-1.747-0.427-2.591-0.655c-0.932-0.252-1.827-0.52-2.729-0.786
			c-0.916-0.268-1.823-0.54-2.706-0.823c-0.823-0.263-1.629-0.534-2.423-0.809c-0.947-0.328-1.862-0.669-2.766-1.014
			c-0.675-0.258-1.359-0.513-2.008-0.781c-1.244-0.513-2.43-1.046-3.576-1.594c-0.349-0.168-0.709-0.332-1.05-0.502
			c-1.256-0.63-2.439-1.284-3.559-1.958c-0.414-0.25-0.791-0.511-1.186-0.767c-0.797-0.516-1.562-1.042-2.276-1.583
			c-0.379-0.287-0.745-0.578-1.101-0.872c-0.684-0.566-1.311-1.148-1.904-1.739c-0.273-0.273-0.563-0.54-0.817-0.818
			c-0.792-0.871-1.512-1.762-2.1-2.688c-0.001-0.002-0.002-0.003-0.003-0.005v903.157c2.136,1.045,4.431,2.014,6.805,2.943
			C959.761,1749.823,960.132,1749.975,960.516,1750.12z"/>
		<path style="fill:#ffff;" d="M1030.214,1794.083c-0.001,0-0.001,0-0.001,0c-0.005,0-0.01,0-0.016-0.001
			c-8.585-0.429-16.965-1.203-24.901-2.312c-0.544-0.076-1.092-0.148-1.632-0.227c-1.513-0.223-2.998-0.462-4.473-0.709
			c-0.706-0.118-1.408-0.238-2.104-0.362c-1.362-0.243-2.705-0.495-4.029-0.76c-0.781-0.156-1.545-0.32-2.312-0.484
			c-1.236-0.265-2.466-0.531-3.664-0.816c-0.822-0.196-1.613-0.406-2.416-0.61c-1.107-0.283-2.225-0.56-3.292-0.861
			c-1.056-0.297-2.057-0.619-3.072-0.934c-1.363-0.423-2.688-0.862-3.973-1.318c-1.054-0.374-2.111-0.745-3.11-1.14
			c-0.683-0.27-1.317-0.558-1.972-0.839c-0.906-0.388-1.805-0.778-2.657-1.185c-0.621-0.297-1.207-0.605-1.798-0.912
			c-0.813-0.422-1.6-0.853-2.354-1.295c-0.538-0.316-1.061-0.637-1.568-0.963c-0.732-0.471-1.417-0.955-2.081-1.447
			c-0.435-0.323-0.877-0.642-1.281-0.974c-0.68-0.556-1.288-1.133-1.878-1.715c-0.297-0.293-0.626-0.577-0.9-0.876
			c-0.809-0.883-1.534-1.789-2.133-2.729c-0.006-0.01-0.016-0.019-0.022-0.029v39.47c2.217,1.084,4.603,2.088,7.075,3.049
			c0.363,0.141,0.716,0.287,1.084,0.426c2.42,0.908,4.956,1.757,7.586,2.552c0.419,0.127,0.842,0.25,1.266,0.375
			c2.743,0.801,5.569,1.554,8.505,2.236c0.155,0.036,0.315,0.068,0.47,0.104c6.332,1.454,13.072,2.642,20.102,3.565
			c0.064,0.009,0.128,0.017,0.192,0.026c10.759,1.403,22.18,2.197,33.796,2.413c0.001,0.004,0.002,0.009,0.003,0.013
			c0.01,0,0.02,0,0.029,0.001c-1.1-7.596-1.901-15.213-2.324-22.831C1030.317,1799.351,1030.26,1796.717,1030.214,1794.083z"/>
		<path style="fill:#ffff;" d="M960.217,822.991c2.258,0.861,4.593,1.682,7.039,2.442c0.097,0.03,0.2,0.058,0.296,0.087
			c2.628,0.809,5.35,1.566,8.17,2.262c0.003,0,0.005,0.001,0.008,0.002c14.477,3.571,31.315,5.659,48.852,6.403
			c0,0.013-0.001,0.027-0.003,0.041c0.015,0.001,0.029,0.002,0.043,0.002c0.951-13.861,1.976-27.721,3.097-41.582
			c-0.013-0.001-0.026-0.003-0.038-0.003v0c-0.522-0.03-1.033-0.078-1.554-0.111c-10.214-0.644-20.094-1.756-29.167-3.38
			c-0.19-0.034-0.385-0.065-0.574-0.099c-1.519-0.276-2.997-0.574-4.468-0.878c-0.592-0.122-1.184-0.244-1.767-0.371
			c-1.301-0.283-2.576-0.578-3.833-0.884c-0.72-0.175-1.426-0.356-2.13-0.539c-1.142-0.296-2.276-0.594-3.375-0.91
			c-0.796-0.228-1.558-0.47-2.329-0.708c-0.98-0.303-1.974-0.598-2.914-0.917c-1.322-0.448-2.583-0.921-3.823-1.402
			c-0.849-0.33-1.661-0.673-2.469-1.018c-0.988-0.422-1.97-0.845-2.892-1.29c-0.586-0.282-1.128-0.58-1.686-0.872
			c-0.827-0.432-1.636-0.869-2.401-1.321c-0.518-0.307-1.013-0.622-1.503-0.938c-0.734-0.474-1.429-0.96-2.094-1.456
			c-0.423-0.316-0.846-0.631-1.24-0.955c-0.675-0.555-1.284-1.128-1.871-1.709c-0.292-0.288-0.61-0.57-0.88-0.865
			c-0.801-0.877-1.522-1.776-2.116-2.708c-0.005-0.009-0.014-0.016-0.019-0.025v50.429c1.994,0.975,4.13,1.883,6.333,2.757
			C959.343,822.65,959.775,822.823,960.217,822.991z"/>
		<path style="fill:#F39318;" d="M952.578,745.438c2.154,1.053,4.47,2.031,6.867,2.967c0.383,0.149,0.756,0.303,1.145,0.45
			c2.392,0.901,4.889,1.748,7.488,2.537c0.318,0.097,0.642,0.19,0.963,0.285c17.385,5.144,38.985,7.87,61.441,8.43
			c-0.001,0.011-0.002,0.023-0.003,0.034c0.012,0,0.025,0,0.037,0.001c2.473-27.196,5.255-54.392,8.467-81.588
			c-0.005,0-0.008,0-0.012-0.001c-1.734-0.086-3.455-0.241-5.18-0.377c-1.121-0.088-2.25-0.148-3.367-0.257
			c-1.604-0.157-3.186-0.375-4.774-0.575c-1.22-0.154-2.448-0.286-3.656-0.466c-1.509-0.224-2.989-0.5-4.477-0.763
			c-1.263-0.224-2.532-0.434-3.779-0.685c-1.427-0.288-2.823-0.622-4.225-0.948c-1.262-0.293-2.528-0.58-3.769-0.904
			c-1.348-0.352-2.665-0.742-3.984-1.13c-1.246-0.366-2.492-0.733-3.709-1.131c-1.262-0.413-2.492-0.858-3.721-1.305
			c-1.209-0.441-2.411-0.888-3.585-1.362c-1.174-0.473-2.32-0.971-3.455-1.478c-1.157-0.516-2.297-1.046-3.412-1.597
			c-1.077-0.531-2.13-1.081-3.166-1.644c-1.091-0.595-2.155-1.21-3.196-1.84c-0.971-0.587-1.927-1.185-2.853-1.804
			c-1.012-0.675-1.981-1.378-2.936-2.091c-0.859-0.641-1.711-1.286-2.523-1.957c-0.918-0.76-1.779-1.554-2.632-2.352
			c-0.737-0.69-1.48-1.378-2.166-2.097c-0.812-0.851-1.548-1.741-2.285-2.631c-0.609-0.735-1.236-1.46-1.792-2.223
			c-0.692-0.949-1.288-1.946-1.894-2.938c-0.47-0.77-0.975-1.522-1.392-2.317c-0.563-1.074-1.007-2.202-1.467-3.323
			c-0.32-0.778-0.694-1.532-0.963-2.332c-0.43-1.279-0.714-2.62-1.008-3.955c-0.156-0.705-0.386-1.378-0.503-2.098
			c-0.332-2.042-0.51-4.146-0.517-6.315c0-0.046-0.01-0.088-0.01-0.134v121.914C952.577,745.438,952.578,745.438,952.578,745.438z"
			/>
		<polygon style="fill:#E6E6E6;" points="1623.664,268.617 1622.563,185.013 1055.459,516.109 501.814,185.013 500.71,268.9
			1055.458,516.16 		"/>
		<polygon style="fill:#135A98;" points="1767.88,325.078 1652,256.272 1623.664,268.617 1055.458,516.16 500.71,268.9
			472.376,256.272 356.497,325.078 1055.455,593.172 		"/>
	</g>
</g>
</svg>
