<?xml version="1.0" encoding="utf-8"?>
<!-- Designed by Vexels.com - 2016 All Rights Reserved - https://vexels.com/terms-and-conditions/  -->

<svg version="1.1" id="Layer_1" xmlns="http://www.w3.org/2000/svg" xmlns:xlink="http://www.w3.org/1999/xlink" x="0px" y="0px"
	 width="1200px" height="1200px" viewBox="0 0 1200 1200" enable-background="new 0 0 1200 1200" xml:space="preserve">
<g>
	<path fill="#135A98"  d="M842.544,232.216c-79.223-68.67-157.79-30.827-157.79-30.827l10.197,62.184
		c0,0,60.699-20.608,109.485,21.705c48.696,42.335,36.305,99.462,36.305,99.462l68.243-4.862
		C908.985,379.877,915.667,295.67,842.544,232.216z"/>
	<path fill="#135A98" d="M924.649,115.715C793.194,8.973,656.208,64.37,656.208,64.37l15.026,66.477
		c0,0,129.153-33.883,217.548,42.741c88.309,76.674,80.656,210.601,80.656,210.601l68.102,6.118
		C1037.54,390.306,1070.895,234.496,924.649,115.715z"/>
	<path fill="#ffa500" d="M751.481,540.813c0,0,100.555,181.139,0,254.917C650.836,869.508,396.06,688.438,335.592,567.662
		c-60.326-120.776-83.306-205.497-17.995-242.048c74.68-41.876,188.158-5.995,232.556,13.944c0,0-187.749-133.486-295.037-60.326
		c-119.929,81.713-60.399,254.848,80.475,409.206c80.461,73.709-72.982,94.086-176.208-224.39
		c-9.846,333.607,352.149,450.477,352.149,450.477s321.202,117.58,340.503-118.796C866.795,615.493,751.481,540.813,751.481,540.813
		z M609.297,907.916c-111.494-33.937-115.791-94.159-115.791-94.159c14.653,4.898,218.171,145.508,353.919,4.898
		C819.105,885.523,720.831,941.817,609.297,907.916z"/>
	<path fill="#ffa500" d="M324.139,928.35c0,0-24.464,66.386-75.262,108.157c-50.781,41.818-65.717,44.808-62.73,56.735
		c3.005,12.022,5.991,56.757,5.991,56.757h504.867l-26.903-92.53C670.101,1057.47,443.572,1059.733,324.139,928.35z"/>
	<path fill="#135A98" d="M395.336,483.897l10.074,42.335l221.226-48.486c0,0-36.305,119.574-43.428,222.801
		c0,0,39.135,16.351,39.135,13.361c0-8.941,50.093-231.514,50.093-231.514s38.726,7.939,59.635-20.344
		c18.418-24.815,39.613-60.29-8.148-109.587c0,0-76.605-43.324-108.631,24.319c-29.872,41.398-14.248,64.041-14.248,64.041
		L395.336,483.897z"/>
</g>
</svg>
