<?xml version="1.0" standalone="no"?>
<!DOCTYPE svg PUBLIC "-//W3C//DTD SVG 20010904//EN"
 "http://www.w3.org/TR/2001/REC-SVG-20010904/DTD/svg10.dtd">
<svg version="1.0" xmlns="http://www.w3.org/2000/svg"
 width="512.000000pt" height="512.000000pt" viewBox="0 0 512.000000 512.000000"
 preserveAspectRatio="xMidYMid meet">

<g transform="translate(0.000000,512.000000) scale(0.100000,-0.100000)"
fill="#da1f0b" stroke="none">
<path d="M2285 5071 c-59 -10 -103 -40 -124 -86 -11 -22 -32 -116 -46 -210
l-27 -170 -111 -28 c-148 -37 -344 -116 -481 -194 -61 -36 -114 -65 -118 -66
-3 -1 -72 45 -153 102 -157 111 -194 127 -262 110 -51 -13 -205 -147 -323
-282 -135 -155 -134 -181 15 -389 58 -81 105 -151 105 -156 0 -6 -21 -46 -47
-89 -92 -156 -207 -443 -228 -571 -5 -31 -13 -46 -28 -52 -12 -5 -96 -21 -187
-35 -268 -41 -276 -55 -268 -452 4 -211 9 -233 60 -279 31 -29 69 -39 233 -64
178 -27 181 -28 190 -82 22 -132 134 -412 228 -571 26 -43 47 -83 47 -88 0 -5
-47 -76 -105 -157 -152 -213 -152 -236 -1 -403 126 -140 254 -250 311 -267 67
-20 103 -4 265 112 l144 104 41 -24 c171 -105 378 -194 555 -240 58 -15 108
-30 112 -33 4 -4 19 -81 34 -171 14 -91 34 -183 45 -206 29 -62 75 -83 200
-90 104 -7 104 -7 131 21 l28 28 0 383 0 383 -23 27 c-20 23 -33 27 -117 35
-520 52 -963 319 -1242 749 -358 551 -352 1252 16 1805 193 289 490 520 821
638 99 35 282 74 400 85 89 9 101 12 122 36 l23 27 0 383 0 383 -26 27 c-24
23 -33 26 -98 25 -39 -1 -89 -4 -111 -8z"/>
<path d="M3210 4895 c-130 -42 -206 -191 -166 -326 19 -65 62 -120 122 -155
l45 -27 -3 -279 -3 -280 -28 -24 c-28 -24 -29 -24 -258 -24 l-229 0 0 -90 0
-90 241 0 c156 0 256 4 281 12 50 15 122 78 151 132 21 39 22 54 25 346 l3
306 31 13 c47 21 104 86 122 138 45 132 -9 274 -129 335 -51 26 -146 32 -205
13z"/>
<path d="M4076 4114 c-66 -21 -137 -93 -161 -163 -22 -66 -16 -150 13 -207 23
-44 88 -108 121 -119 21 -6 21 -11 21 -249 0 -241 0 -243 -23 -264 l-23 -22
-667 0 -667 0 0 -95 0 -96 688 3 687 3 41 22 c56 30 103 79 128 133 19 41 21
66 24 303 3 202 6 257 16 257 22 0 106 80 129 124 17 32 22 58 22 121 0 69 -4
86 -27 127 -68 115 -192 162 -322 122z"/>
<path d="M2365 3853 c-494 -62 -911 -394 -1074 -856 -100 -283 -100 -591 0
-874 167 -472 595 -807 1100 -858 61 -6 68 -5 95 18 l29 25 0 1252 0 1252 -28
24 c-28 24 -48 27 -122 17z"/>
<path d="M2690 3340 l0 -90 451 0 451 0 29 29 c31 31 37 67 17 104 -25 47 -19
46 -495 47 l-453 0 0 -90z"/>
<path d="M4761 2806 c-47 -17 -108 -71 -131 -117 l-20 -39 -960 0 -960 0 0
-90 0 -90 960 0 960 0 19 -37 c43 -85 127 -133 231 -133 110 0 191 50 236 145
27 56 32 142 12 207 -16 52 -77 121 -133 147 -51 24 -157 28 -214 7z"/>
<path d="M2690 2125 l0 -95 668 0 669 0 21 -23 c21 -23 22 -31 22 -264 0 -237
0 -242 -21 -248 -33 -11 -98 -75 -121 -119 -87 -171 45 -386 237 -386 91 0
184 55 233 138 23 41 27 58 27 127 0 63 -5 89 -22 121 -23 44 -107 124 -129
124 -10 0 -13 55 -16 258 -3 236 -5 261 -24 302 -25 54 -72 103 -128 133 l-41
22 -687 3 -688 3 0 -96z"/>
<path d="M2690 1780 l0 -90 453 0 c476 1 470 0 495 47 20 37 14 73 -17 104
l-29 29 -451 0 -451 0 0 -90z"/>
<path d="M2690 1430 l0 -90 229 0 c229 0 230 0 258 -24 l28 -24 3 -281 3 -280
-39 -20 c-91 -46 -151 -162 -138 -264 15 -109 85 -194 185 -224 214 -62 398
136 325 350 -18 52 -75 117 -122 138 l-31 13 -3 306 c-3 292 -4 307 -25 346
-29 54 -101 117 -151 132 -25 8 -125 12 -281 12 l-241 0 0 -90z"/>
</g>
</svg>
