<?xml version="1.0" standalone="no"?>
<!DOCTYPE svg PUBLIC "-//W3C//DTD SVG 20010904//EN"
 "http://www.w3.org/TR/2001/REC-SVG-20010904/DTD/svg10.dtd">
<svg version="1.0" xmlns="http://www.w3.org/2000/svg"
 width="512.000000pt" height="512.000000pt" viewBox="0 0 512.000000 512.000000"
 preserveAspectRatio="xMidYMid meet">

<g transform="translate(0.000000,512.000000) scale(0.100000,-0.100000)"
fill="#000000" stroke="none">
<path d="M2628 5055 l-28 -28 0 -383 0 -383 23 -27 c20 -23 33 -27 117 -35
520 -52 963 -319 1242 -749 358 -551 352 -1252 -16 -1805 -193 -289 -490 -520
-821 -638 -99 -35 -282 -74 -400 -85 -89 -9 -101 -12 -122 -36 l-23 -27 0
-383 0 -383 28 -28 c27 -27 28 -28 130 -22 124 7 171 28 201 91 11 23 32 117
46 211 l27 170 111 28 c148 37 344 116 481 194 61 36 114 65 118 66 3 1 72
-45 153 -102 157 -111 194 -127 262 -110 51 13 205 147 323 282 135 155 134
181 -15 389 -58 81 -105 151 -105 156 0 6 21 46 47 89 92 156 207 443 228 571
5 31 13 46 28 52 12 5 96 21 187 35 268 41 276 55 268 452 -4 211 -9 233 -60
279 -31 29 -69 39 -233 64 -178 27 -181 28 -190 82 -22 132 -134 412 -228 571
-26 43 -47 83 -47 88 0 5 47 76 105 157 152 213 152 236 1 403 -126 140 -254
250 -311 267 -67 20 -103 4 -265 -112 l-144 -104 -41 24 c-171 105 -378 194
-555 240 -58 15 -108 30 -112 33 -4 4 -19 81 -34 171 -14 91 -34 183 -45 206
-29 62 -75 83 -200 90 -104 7 -104 7 -131 -21z"/>
<path d="M1750 4901 c-148 -45 -226 -203 -174 -354 18 -52 75 -117 122 -138
l31 -13 3 -306 c3 -292 4 -307 25 -346 29 -54 101 -117 151 -132 25 -8 125
-12 281 -12 l241 0 0 90 0 90 -229 0 c-229 0 -230 0 -258 24 l-28 24 -3 281
-3 280 39 20 c91 46 151 162 138 264 -9 66 -47 138 -93 176 -61 51 -170 74
-243 52z"/>
<path d="M870 4115 c-58 -18 -113 -64 -148 -123 -23 -41 -27 -58 -27 -127 0
-63 5 -89 22 -121 23 -44 107 -124 129 -124 10 0 13 -55 16 -257 3 -237 5
-262 24 -303 25 -54 72 -103 128 -133 l41 -22 688 -3 687 -3 0 96 0 95 -668 0
-669 0 -21 23 c-21 23 -22 31 -22 264 0 237 0 242 21 248 33 11 98 75 121 119
11 22 23 65 25 96 18 191 -161 332 -347 275z"/>
<path d="M2634 3837 l-29 -25 0 -1252 0 -1252 29 -25 c27 -23 34 -24 95 -18
504 51 933 386 1100 858 117 332 94 713 -61 1021 -199 395 -595 666 -1039 711
-61 6 -68 5 -95 -18z"/>
<path d="M1509 3417 c-47 -36 -51 -97 -10 -138 l29 -29 451 0 451 0 0 90 0 90
-452 0 c-340 -1 -457 -4 -469 -13z"/>
<path d="M145 2796 c-60 -28 -97 -66 -124 -126 -23 -51 -28 -141 -9 -202 16
-52 77 -121 133 -147 51 -24 144 -28 206 -9 50 15 114 69 140 119 l19 39 960
0 960 0 0 90 0 90 -960 0 -960 0 -19 38 c-61 118 -220 168 -346 108z"/>
<path d="M1065 2211 c-76 -19 -145 -77 -179 -151 -19 -41 -21 -66 -24 -302 -3
-203 -6 -258 -16 -258 -22 0 -106 -80 -129 -124 -17 -32 -22 -58 -22 -121 0
-69 4 -86 27 -127 92 -155 293 -184 418 -59 109 109 106 280 -8 383 -22 20
-49 39 -61 43 -21 6 -21 11 -21 249 0 241 0 243 23 264 l23 22 667 0 667 0 0
95 0 95 -667 -1 c-368 -1 -681 -4 -698 -8z"/>
<path d="M1499 1841 c-31 -31 -37 -67 -17 -104 25 -47 19 -46 496 -47 l452 0
0 90 0 90 -451 0 -451 0 -29 -29z"/>
<path d="M1902 1507 c-44 -14 -118 -80 -145 -131 -21 -39 -22 -54 -25 -346
l-3 -306 -31 -13 c-47 -21 -104 -86 -122 -138 -73 -214 111 -412 325 -350 220
65 253 366 53 483 l-45 27 3 279 3 280 28 24 c28 24 29 24 258 24 l229 0 0 90
0 90 -247 -1 c-143 -1 -262 -5 -281 -12z"/>
</g>
</svg>
