<?xml version="1.0" standalone="no"?>
<!DOCTYPE svg PUBLIC "-//W3C//DTD SVG 20010904//EN"
 "http://www.w3.org/TR/2001/REC-SVG-20010904/DTD/svg10.dtd">
<svg version="1.0" xmlns="http://www.w3.org/2000/svg"
 width="512.000000pt" height="512.000000pt" viewBox="0 0 512.000000 512.000000"
 preserveAspectRatio="xMidYMid meet">

<g transform="translate(0.000000,512.000000) scale(0.100000,-0.100000)"
fill="#000000" stroke="none">
<path d="M2320 5111 c-44 -9 -69 -23 -96 -53 -29 -31 -39 -69 -64 -233 -27
-178 -28 -181 -82 -190 -132 -22 -412 -134 -571 -228 -43 -26 -83 -47 -88 -47
-5 0 -76 47 -157 105 -213 152 -236 152 -403 1 -140 -126 -250 -254 -267 -311
-20 -67 -4 -103 112 -265 l104 -144 -24 -41 c-105 -171 -194 -378 -240 -555
-15 -58 -30 -108 -33 -112 -4 -4 -81 -19 -171 -34 -91 -14 -183 -34 -206 -45
-62 -29 -83 -75 -90 -200 -7 -104 -7 -104 21 -131 l28 -28 383 0 383 0 27 23
c23 20 27 33 35 117 52 520 319 963 749 1242 551 358 1252 352 1805 -16 289
-193 520 -490 638 -821 35 -99 74 -282 85 -400 9 -89 12 -101 36 -122 l27 -23
383 0 383 0 28 28 c27 27 28 28 22 130 -7 124 -28 171 -91 201 -23 11 -117 32
-211 46 l-170 27 -28 111 c-37 148 -116 344 -194 481 -36 61 -65 114 -66 118
-1 3 45 72 102 153 111 157 127 194 110 262 -13 51 -147 205 -282 323 -155
135 -181 134 -389 -15 -81 -58 -151 -105 -156 -105 -6 0 -46 21 -89 47 -156
92 -443 207 -571 228 -31 5 -46 13 -52 28 -5 12 -21 96 -35 187 -40 263 -51
270 -400 268 -110 0 -216 -3 -235 -7z"/>
<path d="M2440 3900 c-191 -18 -414 -92 -564 -188 -349 -224 -570 -578 -611
-983 -6 -61 -5 -68 18 -95 l25 -29 1252 0 1252 0 25 29 c23 27 24 34 18 95
-41 404 -262 760 -611 983 -217 139 -533 213 -804 188z"/>
<path d="M1340 2201 c0 -229 0 -230 -24 -258 l-24 -28 -281 -3 -280 -3 -20 39
c-46 91 -162 151 -264 138 -109 -15 -194 -85 -224 -185 -62 -214 136 -398 350
-325 52 18 117 75 138 122 l13 31 306 3 c292 3 307 4 346 25 54 29 117 101
132 151 8 25 12 125 12 281 l0 241 -90 0 -90 0 0 -229z"/>
<path d="M1690 1978 c1 -477 0 -471 47 -496 37 -20 73 -14 104 17 l29 29 0
451 0 451 -90 0 -90 0 0 -452z"/>
<path d="M2030 1762 l0 -669 -23 -21 c-23 -21 -31 -22 -264 -22 -237 0 -242 0
-248 21 -11 33 -75 98 -119 121 -171 87 -386 -45 -386 -237 0 -91 55 -184 138
-233 41 -23 58 -27 127 -27 63 0 89 5 121 22 44 23 124 107 124 129 0 10 55
13 258 16 236 3 261 5 302 24 54 25 103 72 133 128 l22 41 3 688 3 687 -96 0
-95 0 0 -668z"/>
<path d="M2470 1470 l0 -960 -37 -19 c-146 -75 -180 -292 -65 -415 62 -66 184
-94 284 -64 52 16 121 77 147 133 24 51 28 144 9 206 -15 50 -69 114 -119 140
l-39 19 0 960 0 960 -90 0 -90 0 0 -960z"/>
<path d="M2902 1743 l3 -688 22 -41 c30 -56 79 -103 133 -128 41 -19 66 -21
303 -24 202 -3 257 -6 257 -16 0 -22 80 -106 124 -129 32 -17 58 -22 121 -22
69 0 86 4 127 27 155 92 184 293 59 418 -109 109 -280 106 -383 -8 -20 -22
-39 -49 -43 -61 -6 -21 -11 -21 -249 -21 -241 0 -243 0 -264 23 l-22 23 0 667
0 667 -95 0 -96 0 3 -687z"/>
<path d="M3250 1979 l0 -451 29 -29 c31 -31 67 -37 104 -17 47 25 46 19 47
496 l0 452 -90 0 -90 0 0 -451z"/>
<path d="M3600 2189 c0 -156 4 -256 12 -281 15 -50 78 -122 132 -151 39 -21
54 -22 346 -25 l306 -3 13 -31 c21 -47 86 -104 138 -122 214 -73 412 111 350
325 -65 220 -366 253 -483 53 l-27 -45 -279 3 -280 3 -24 28 c-24 28 -24 29
-24 258 l0 229 -90 0 -90 0 0 -241z"/>
</g>
</svg>
