<svg xmlns="http://www.w3.org/2000/svg" shape-rendering="geometricPrecision" text-rendering="geometricPrecision"
     image-rendering="optimizeQuality" fill-rule="evenodd" clip-rule="evenodd" viewBox="0 0 424 511.9">
    <path fill="#ffa500" fill-rule="nonzero"
          d="M48.08 493.62h355.07c.72 0 1.36-.28 1.81-.73l.03-.03c.45-.45.73-1.09.73-1.81v-47.34H48.08c-12.91 0-21.05 6.36-24.5 14.5-1.38 3.26-2.07 6.83-2.07 10.41 0 3.56.7 7.13 2.09 10.41 3.47 8.18 11.61 14.59 24.48 14.59zm177.2-388.34c0-1.26.23-2.41.67-3.48.44-1.06 1.1-2.03 1.98-2.9.89-.87 1.84-1.52 2.88-1.96 1.05-.44 2.17-.66 3.37-.66 1.21 0 2.33.22 3.36.66 1.04.44 1.98 1.1 2.85 1.97.86.86 1.51 1.83 1.94 2.89.44 1.07.65 2.22.65 3.48 0 1.22-.21 2.36-.64 3.42-.43 1.05-1.08 2.03-1.95 2.92-.86.88-1.81 1.55-2.84 1.99-1.04.45-2.16.67-3.37.67-1.24 0-2.38-.22-3.43-.66-1.05-.44-2.01-1.1-2.88-1.98-.86-.89-1.51-1.86-1.94-2.92-.43-1.06-.65-2.2-.65-3.44zm3.4 52.64-.19.68-.12.55-.06.37-.02.29c0 .28.03.52.1.71v.03c.06.17.15.32.26.44.1.12.23.21.39.26.17.07.37.1.6.1.43 0 .96-.23 1.6-.7.7-.5 1.49-1.26 2.38-2.26.91-1.03 1.85-2.24 2.82-3.63.98-1.4 2.01-2.99 3.07-4.77a.41.41 0 0 1 .56-.14l3.61 2.68c.17.13.21.37.1.54-1.66 2.9-3.34 5.42-5.04 7.57-1.71 2.17-3.45 3.97-5.21 5.39l-.03.02c-1.75 1.42-3.56 2.5-5.41 3.22-1.86.72-3.77 1.08-5.72 1.08-1.68 0-3.18-.2-4.48-.6-1.31-.4-2.43-1.01-3.34-1.83-.91-.81-1.59-1.81-2.05-2.99-.45-1.16-.68-2.49-.68-3.99 0-.49.03-1.02.09-1.57.07-.55.16-1.13.28-1.73v-.03c.12-.59.27-1.26.47-2 .2-.74.45-1.57.73-2.48l6.36-19.63.52-1.84c.13-.51.24-.97.33-1.36.07-.35.13-.69.17-.99.04-.32.06-.61.06-.85 0-.44-.08-.85-.22-1.2l-.01-.03c-.14-.34-.35-.64-.63-.89-.29-.27-.64-.47-1.03-.61-.41-.14-.88-.21-1.41-.21h-5.1c-.22 0-.4-.18-.4-.4l.02-.14 1.34-4.88c.05-.18.21-.3.39-.3l26.07-.82c.22 0 .41.17.41.4l-.01.12-11.57 38.42zm-.85-99.74c20.73 0 39.51 8.42 53.11 22.01 13.62 13.59 22.03 32.38 22.03 53.13 0 20.74-8.41 39.53-22.01 53.12l-.41.38c-13.57 13.37-32.19 21.63-52.72 21.63-20.72 0-39.5-8.42-53.1-22.01-13.62-13.59-22.03-32.38-22.03-53.12 0-20.75 8.41-39.54 22.01-53.13l.41-.38c13.57-13.37 32.19-21.63 52.71-21.63zm43.46 31.68c-11.11-11.11-26.48-17.98-43.46-17.98-16.8 0-32.03 6.74-43.12 17.65l-.32.34c-11.11 11.11-17.99 26.48-17.99 43.45 0 16.96 6.88 32.33 17.99 43.44 11.1 11.12 26.47 17.99 43.44 17.99 16.81 0 32.04-6.74 43.13-17.65l.32-.34c11.11-11.11 17.99-26.48 17.99-43.44 0-16.97-6.88-32.34-17.98-43.46zm-121.9 157.49v38.34h5.81c2.07 0 3.49-.26 4.25-.78.76-.52 1.14-1.7 1.14-3.55v-34.01h16.35v28.69c0 4.64-.29 8.37-.9 11.2-.59 2.84-1.71 5.24-3.35 7.2-1.63 1.96-3.87 3.32-6.7 4.09-2.84.76-6.51 1.14-11.04 1.14-4.52 0-8.18-.38-10.99-1.14-2.81-.77-5.03-2.13-6.67-4.09-1.63-1.96-2.75-4.36-3.35-7.2-.6-2.83-.9-6.56-.9-11.2v-28.69h16.35zm33.69 50.19 2.29-13.48c5.01 1.25 9.52 1.88 13.53 1.88 4 0 7.23-.17 9.69-.49v-4.09l-7.36-.66c-6.65-.6-11.22-2.19-13.7-4.78-2.48-2.59-3.72-6.42-3.72-11.49 0-6.97 1.52-11.77 4.54-14.38 3.03-2.62 8.16-3.93 15.41-3.93s13.79.68 19.62 2.04l-2.04 13.09c-5.07-.82-9.13-1.23-12.18-1.23-3.06 0-5.64.14-7.77.41v4l5.89.58c7.14.7 12.07 2.41 14.79 5.11 2.73 2.69 4.09 6.44 4.09 11.24 0 3.43-.46 6.33-1.39 8.7-.93 2.37-2.03 4.17-3.31 5.4-1.28 1.23-3.09 2.17-5.44 2.82-2.34.65-4.4 1.05-6.17 1.18-1.77.14-4.13.21-7.07.21-7.09 0-13.65-.71-19.7-2.13zm83.14-18.39h-16.35v6.21h20.03v13.08h-36.38v-51.09h35.97l-2.04 13.08h-17.58v6.87h16.35v11.85zm56.41 19.29h-17.98l-6.71-15.2h-3.51v15.2h-16.35v-51.09h25.75c11.72 0 17.58 5.96 17.58 17.9 0 8.18-2.54 13.57-7.61 16.19l8.83 17zm-28.2-38.01v10.22h3.76c1.96 0 3.39-.21 4.29-.62.9-.4 1.35-1.34 1.35-2.82v-3.35c0-1.47-.45-2.41-1.35-2.82-.9-.41-2.33-.61-4.29-.61h-3.76zM145.38 364.01v-2.2h-4.17V349.3h19.71v27.31a56.466 56.466 0 0 1-20.11 3.67c-9.33 0-15.73-2.26-19.22-6.78-1.79-2.35-3.05-5.1-3.76-8.26s-1.06-7.07-1.06-11.73.37-8.56 1.1-11.69c.74-3.14 2.06-5.88 3.97-8.22 3.6-4.58 10.55-6.87 20.85-6.87 2.12 0 4.89.22 8.3.66 3.4.43 5.9.93 7.47 1.47l-2.45 12.51c-4.41-.76-8.4-1.15-11.97-1.15-3.57 0-6.08.28-7.53.82-1.44.55-2.16 1.64-2.16 3.27v23.14h5.39c1.96 0 3.4-.21 4.3-.62.9-.4 1.34-1.34 1.34-2.82zm39.86-36.05v38.34h5.81c2.07 0 3.48-.26 4.25-.77.76-.52 1.14-1.71 1.14-3.56v-34.01h16.35v28.7c0 4.63-.3 8.36-.9 11.2-.6 2.83-1.72 5.23-3.35 7.19-1.63 1.96-3.87 3.32-6.7 4.09-2.84.76-6.52 1.14-11.04 1.14s-8.19-.38-11-1.14c-2.8-.77-5.02-2.13-6.66-4.09-1.63-1.96-2.75-4.36-3.35-7.19-.6-2.84-.9-6.57-.9-11.2v-28.7h16.35zm36.34 51.1v-51.1h16.35v51.1h-16.35zm26.37 0v-51.1h22.89c9.21 0 15.53 1.96 18.97 5.89 3.43 3.92 5.15 10.48 5.15 19.66s-1.72 15.74-5.15 19.66c-3.44 3.93-9.76 5.89-18.97 5.89h-22.89zm23.14-38.02h-6.79v24.94h6.79c2.23 0 3.85-.26 4.86-.78 1.01-.52 1.51-1.7 1.51-3.56v-16.27c0-1.85-.5-3.03-1.51-3.55s-2.63-.78-4.86-.78zm64.13 18.72h-16.35v6.22h20.03v13.08h-36.38v-51.1h35.98l-2.05 13.08h-17.58v6.87h16.35v11.85zM32 474.84h361.16v8.01H35.81c-1.53-2.51-2.82-5.2-3.81-8.01zm3.82-20.36a42.398 42.398 0 0 0-3.82 8.01h361.16v-8.01H35.82zM6.09 484.95c-2.05-5.13-3.58-10.61-4.58-16.34C.5 462.85 0 456.81 0 450.58V80.85c0-22.45 6.5-42.4 18.92-56.94C30.86 9.94 48.06 1.13 69.98.04L70.4 0h353.51v439.65c.06.55.09 1.12.09 1.69v49.71c0 5.69-2.34 10.88-6.1 14.67l-.04.04c-3.81 3.79-9.01 6.14-14.71 6.14H48.08c-21.32 0-35.12-11.33-41.26-25.8l-.5-1.24-.23.09zm399.54-59.52V18.28H70.4c-3.29.18-6.43.59-9.42 1.21v405.94h344.65zm-362.93.26V26.96a47.668 47.668 0 0 0-9.92 8.8c-9.52 11.14-14.5 26.94-14.5 45.09v354.62c6.23-5.24 14.37-8.84 24.42-9.78z"/>
</svg>